<svg xmlns="http://www.w3.org/2000/svg" viewBox="0 0 5261.34 970.54"><defs><style>.cls-1,.cls-4{fill:none;stroke-miterlimit:10;}.cls-1{stroke:#fff;stroke-width:0.25px;}.cls-2{fill:#d3fafb;}.cls-3{fill:#fff;}.cls-4{stroke:#d3fafb;stroke-width:18px;}</style></defs><title>logo_launch_pad</title><g id="Layer_7" data-name="Layer 7"><line class="cls-1" x1="261.19" y1="878.13" x2="261.19" y2="700.68"/><rect class="cls-2" width="970.54" height="970.54" rx="37.32" ry="37.32"/><line class="cls-1" x1="485.27" y1="573.99" x2="485.27" y2="396.54"/><polygon class="cls-3" points="704.47 707.55 701.26 884.98 617.27 824.54 652.56 660.17 704.47 707.55"/><path class="cls-3" d="M507.61,414.8a71.58,71.58,0,0,0,0-142.22c-.46-.05-.9-.1-1.34-.13l1.32-151.93c34.89,35.41,85.3,96,118.23,183.69,0,0,37.77,107,29.43,274.54,0,1.17-.11,2.31-.18,3.32a462.69,462.69,0,0,0-52.46-11.74l-1.87-.31c-17.74-2.85-31.37-4-45.12-5.13s-31.32-2.22-51.81-2.59q.62-73.63,1.24-147.27C505.9,415,506.76,414.9,507.61,414.8Z" transform="translate(-11.91 -8.79)"/><path class="cls-3" d="M655.07,582.07c-.08,1.84-.16,3.21-.16,3.21s-.26,4.2-.54,8.45c-.18,2.85-5,30.33-13.4,74.71l-.18,0h0c-15.13-3-30.91-5.85-47.33-8.26-1.69-.26-3.37-.49-5-.73l14.2-89.09A462.69,462.69,0,0,1,655.07,582.07Z" transform="translate(-11.91 -8.79)"/><path class="cls-3" d="M640.79,668.41l.18,0c-5.25,27.79-11.89,62.22-19.63,101.39l-.44-.08a410.22,410.22,0,0,0-48.37-10.49l.05-.39,15.83-99.45c1.66.24,3.34.47,5,.73,16.42,2.41,32.2,5.21,47.33,8.26Z" transform="translate(-11.91 -8.79)"/><path class="cls-3" d="M620.9,769.75l.44.08c-3.94,19.87-8.16,41-12.62,63l-109.6-2.8h2.41q.3-37.42.62-74.81v-.68a404.53,404.53,0,0,1,60.3,3.27c3.42.44,6.79.9,10.08,1.42A410.22,410.22,0,0,1,620.9,769.75Z" transform="translate(-11.91 -8.79)"/><path class="cls-3" d="M602.61,570.33l-14.2,89.09c-30.13-4.25-58.67-6.71-85.38-7.9l.78-89.22c20.49.37,38,1.45,51.81,2.59S583,567.17,600.74,570Z" transform="translate(-11.91 -8.79)"/><path class="cls-3" d="M588.41,659.42l-15.83,99.45-.05.39c-3.29-.52-6.66-1-10.08-1.42a404.53,404.53,0,0,0-60.3-3.27q.47-51.52.88-103.05C529.74,652.71,558.28,655.17,588.41,659.42Z" transform="translate(-11.91 -8.79)"/><path class="cls-2" d="M507.61,272.58a71.58,71.58,0,0,1,0,142.22V399.39a55.65,55.65,0,0,0,0-110.28Z" transform="translate(-11.91 -8.79)"/><polygon class="cls-3" points="538.75 838.86 527.07 883.13 488.45 882.15 490.05 882.15 490.96 837.65 538.75 838.86"/><path class="cls-3" d="M507.61,289.11a55.65,55.65,0,0,1,0,110.28Z" transform="translate(-11.91 -8.79)"/><path class="cls-2" d="M507.61,399.39V414.8c-.85.1-1.71.18-2.56.23.05-5.13.1-10.23.13-15.36C506,399.59,506.81,399.51,507.61,399.39Z" transform="translate(-11.91 -8.79)"/><path class="cls-3" d="M507.61,289.11V399.39c-.8.12-1.63.2-2.43.28q.51-55.37,1-110.74A12.29,12.29,0,0,1,507.61,289.11Z" transform="translate(-11.91 -8.79)"/><path class="cls-2" d="M507.61,272.58v16.53a12.29,12.29,0,0,0-1.47-.18q.08-8.25.13-16.48C506.71,272.48,507.15,272.53,507.61,272.58Z" transform="translate(-11.91 -8.79)"/><path class="cls-3" d="M507.61,94.35v21.86l-2.22,2.1-2.21-2.2c0,1.45-.05,2.88-.07,4.33v0l-3.66,3.47V94.35Z" transform="translate(-11.91 -8.79)"/><path class="cls-3" d="M507.61,116.21c0,1.43,0,2.88,0,4.31l-2.2-2.21Z" transform="translate(-11.91 -8.79)"/><path class="cls-3" d="M507.59,120.52l-1.32,151.93a52.08,52.08,0,0,0-5.75-.31q1.32-75.85,2.59-151.68l2.28-2.15Z" transform="translate(-11.91 -8.79)"/><path class="cls-2" d="M506.27,272.45q0,8.24-.13,16.48a47.85,47.85,0,0,0-5.88-.34c.07-5.49.18-11,.26-16.45A52.08,52.08,0,0,1,506.27,272.45Z" transform="translate(-11.91 -8.79)"/><path class="cls-3" d="M506.14,288.93q-.47,55.36-1,110.74c-1.66.16-3.34.23-5.05.23-.6,0-1.19,0-1.79,0q1-55.64,1.92-111.26A47.85,47.85,0,0,1,506.14,288.93Z" transform="translate(-11.91 -8.79)"/><path class="cls-3" d="M505.39,118.31l-2.28,2.15v0C503.88,119.71,504.63,119,505.39,118.31Z" transform="translate(-11.91 -8.79)"/><path class="cls-3" d="M503.18,116.11l2.21,2.2c-.76.7-1.51,1.4-2.28,2.13C503.13,119,503.16,117.56,503.18,116.11Z" transform="translate(-11.91 -8.79)"/><path class="cls-2" d="M505.18,399.67c0,5.13-.08,10.23-.13,15.36-1.84.16-3.71.24-5.6.24-.46,0-.93,0-1.37,0q.15-7.69.26-15.39c.6,0,1.19,0,1.79,0C501.84,399.9,503.52,399.83,505.18,399.67Z" transform="translate(-11.91 -8.79)"/><path class="cls-3" d="M495.59,562q1.25-73.41,2.49-146.78c.44,0,.91,0,1.37,0,1.89,0,3.76-.08,5.6-.24q-.58,73.64-1.24,147.27c-2.7,0-5.42-.1-8.22-.13Z" transform="translate(-11.91 -8.79)"/><path class="cls-3" d="M499.09,651.34c-1.68-.05-3.37-.13-5-.18q.78-44.49,1.53-89c2.8,0,5.52.08,8.22.13L503,651.52C501.71,651.44,500.39,651.39,499.09,651.34Z" transform="translate(-11.91 -8.79)"/><path class="cls-3" d="M503.11,120.46q-1.29,75.81-2.59,151.68c-.34,0-.7,0-1.07,0a71.57,71.57,0,0,0-1.37,143.13Q496.84,488.6,495.59,562c-22-.31-40.72.39-55.2,1.24-13.32.81-26.53,1.63-43.73,4.07a432.55,432.55,0,0,0-55.23,11.58c-.05-1.17-.08-2.59-.13-4.07-4.14-167.73,37-273.69,37-273.69,34.53-84,85-142.27,121.18-177.22Z" transform="translate(-11.91 -8.79)"/><path class="cls-3" d="M503,651.52q-.43,51.53-.88,103.05c-2.39,0-4.74.11-7,.21-.94,0-1.87-.1-2.83-.18q.9-51.6,1.76-103.21c1.69,0,3.37,0,5,0C500.39,651.39,501.71,651.44,503,651.52Z" transform="translate(-11.91 -8.79)"/><polygon class="cls-3" points="490.96 837.59 490.96 837.65 488.73 837.59 490.96 837.59"/><polygon class="cls-3" points="490.96 837.65 490.05 882.15 488.45 882.15 477.28 881.87 477.51 837.59 488.73 837.59 490.96 837.65"/><path class="cls-3" d="M502.15,754.57v.68c-2.28-.18-4.64-.34-7-.47C497.41,754.68,499.76,754.62,502.15,754.57Z" transform="translate(-11.91 -8.79)"/><path class="cls-3" d="M502.15,755.25q-.31,37.41-.62,74.81h-2.41l-8.11-.21q.66-37.38,1.29-74.78v-.19c.94,0,1.87-.07,2.83-.1C497.51,754.91,499.87,755.07,502.15,755.25Z" transform="translate(-11.91 -8.79)"/><polygon class="cls-3" points="488.73 837.59 477.51 837.59 477.51 837.31 488.73 837.59"/><path class="cls-2" d="M500.52,272.14c-.08,5.46-.19,11-.26,16.45h-.13a55.64,55.64,0,0,0-1.79,111.26q-.12,7.69-.26,15.39a71.57,71.57,0,0,1,1.37-143.13C499.82,272.11,500.18,272.11,500.52,272.14Z" transform="translate(-11.91 -8.79)"/><polygon class="cls-3" points="488.45 882.15 440.24 882.15 429.69 837.59 477.51 837.59 477.28 881.87 488.45 882.15"/><path class="cls-3" d="M500.26,288.59q-1,55.61-1.92,111.26a55.64,55.64,0,0,1,1.79-111.26Z" transform="translate(-11.91 -8.79)"/><path class="cls-3" d="M492.3,754.88v.19q-.66,37.38-1.29,74.78l8.11.21H382c-4-22.2-7.7-43.42-11.17-63.39a409,409,0,0,1,51.16-9.58c2.49-.32,5-.6,7.57-.86a412.32,412.32,0,0,1,62.79-1.63Z" transform="translate(-11.91 -8.79)"/><path class="cls-3" d="M494.06,651.16c1.66.05,3.35.13,5,.18-1.66,0-3.34,0-5,0Z" transform="translate(-11.91 -8.79)"/><path class="cls-3" d="M495.59,562.17q-.76,44.51-1.53,89v.23c-26.68.47-55.25,2.13-85.46,5.52l-11.94-89.58c17.2-2.44,30.41-3.26,43.73-4.07,14.48-.85,33.18-1.55,55.2-1.24Z" transform="translate(-11.91 -8.79)"/><path class="cls-3" d="M492.3,754.6c1,.08,1.89.13,2.83.18-1,0-1.89.05-2.83.1Z" transform="translate(-11.91 -8.79)"/><path class="cls-3" d="M494.06,651.39q-.84,51.6-1.76,103.21a412.32,412.32,0,0,0-62.79,1.63c-2.57.26-5.08.54-7.57.86L408.6,656.91C438.81,653.52,467.38,651.86,494.06,651.39Z" transform="translate(-11.91 -8.79)"/><path class="cls-3" d="M408.6,656.91l13.34,100.18a409,409,0,0,0-51.16,9.58c-6.86-39.32-12.69-73.91-17.3-101.83q22.8-4,47.53-7.05C403.55,657.48,406.09,657.19,408.6,656.91Z" transform="translate(-11.91 -8.79)"/><path class="cls-3" d="M396.66,567.33l11.94,89.58c-2.51.28-5.05.57-7.59.88q-24.7,3-47.53,7.05c-7.36-44.56-11.56-72.15-11.69-75-.15-4.25-.31-8.44-.31-8.44s0-1-.05-2.49A432.55,432.55,0,0,1,396.66,567.33Z" transform="translate(-11.91 -8.79)"/><polygon class="cls-3" points="320.45 656.05 351.54 821.27 266.05 879.56 267.35 702.11 320.45 656.05"/><path class="cls-4" d="M341,579c.13,0,.26-.08.41-.1a432.55,432.55,0,0,1,55.23-11.58c17.2-2.44,30.41-3.26,43.73-4.07,14.48-.85,33.18-1.55,55.2-1.24" transform="translate(-11.91 -8.79)"/><path class="cls-4" d="M494.06,651.39c-26.68.47-55.25,2.13-85.46,5.52-2.51.28-5.05.57-7.59.88q-24.7,3-47.53,7.05" transform="translate(-11.91 -8.79)"/><path class="cls-4" d="M492.3,754.6a412.32,412.32,0,0,0-62.79,1.63c-2.57.26-5.08.54-7.57.86a409,409,0,0,0-51.16,9.58" transform="translate(-11.91 -8.79)"/><polyline class="cls-4" points="384.75 558.54 396.69 648.12 410.03 748.3"/><path class="cls-4" d="M658,582.92c-1-.28-1.94-.57-2.95-.85a462.69,462.69,0,0,0-52.46-11.74l-1.87-.31c-17.74-2.85-31.37-4-45.12-5.13s-31.32-2.22-51.81-2.59c-2.7,0-5.42-.1-8.22-.13l-4.58,0" transform="translate(-11.91 -8.79)"/><path class="cls-4" d="M492.61,651.11c.5,0,1,0,1.45,0,1.66.05,3.35.13,5,.18,1.3,0,2.62.1,3.94.18,26.71,1.19,55.25,3.65,85.38,7.9,1.66.24,3.34.47,5,.73,16.42,2.41,32.2,5.21,47.33,8.26" transform="translate(-11.91 -8.79)"/><path class="cls-4" d="M489.84,755c.81,0,1.63-.08,2.46-.11s1.87-.07,2.83-.1c2.28-.1,4.63-.16,7-.21a404.53,404.53,0,0,1,60.3,3.27c3.42.44,6.79.9,10.08,1.42a410.22,410.22,0,0,1,48.37,10.49" transform="translate(-11.91 -8.79)"/><polyline class="cls-4" points="590.77 561.03 590.7 561.55 576.5 650.63 560.67 750.09"/><path class="cls-2" d="M1190.49,507.38V358.59H1264v155.2c0,54.3,20.06,73.06,56.43,73.06,36.55,0,57.6-18.76,57.6-73.06V358.59h70.85V507.38c0,93.1-44.36,133.6-128.45,133.6S1190.49,600.48,1190.49,507.38Z" transform="translate(-11.91 -8.79)"/><path class="cls-2" d="M1548.7,358.59H1660c67.48,0,119.88,15.81,119.88,68.77,0,24.87-16.31,51.35-42.83,59.86v1.7c33.21,7.36,58.85,28.23,58.85,65.27,0,56.41-55.92,81.69-126.62,81.69H1548.7Zm107.86,111.06c35.66,0,51.44-12.86,51.44-33,0-21.36-16.66-29.66-50.91-29.66h-34.9v62.69Zm6.69,117.86c40.06,0,60.76-12.16,60.76-37.38,0-24.31-20.35-34.22-60.76-34.22h-41.06v71.6Z" transform="translate(-11.91 -8.79)"/><path class="cls-2" d="M1860.16,498.84c0-92,71.29-145.36,153.44-145.36a148.92,148.92,0,0,1,97.76,36l-38.74,40.21c-16.32-13-33.86-22.07-57.38-22.07-44.58,0-79.78,33.53-79.78,89.12,0,57,31.09,90.12,78.61,90.12,26.69,0,47.69-11.21,63.59-25.92l38.74,39.36c-27,26.78-62.9,40.69-105,40.69C1929,641,1860.16,592.24,1860.16,498.84Z" transform="translate(-11.91 -8.79)"/><path class="cls-2" d="M2315.29,358.59h73.49V583.3h128.31v52.58h-201.8Z" transform="translate(-11.91 -8.79)"/><path class="cls-2" d="M2655.91,358.59h87.93l102.08,277.29h-77.77l-42.53-140.44c-9-27.72-17.71-60.51-26.4-89.44h-2c-7.86,29.28-16.54,61.72-25.58,89.44L2629,635.88h-75.13ZM2621.13,521.1h156.4v48.72h-156.4Z" transform="translate(-11.91 -8.79)"/><path class="cls-2" d="M2898.69,507.38V358.59h73.49v155.2c0,54.3,20.06,73.06,56.43,73.06,36.55,0,57.6-18.76,57.6-73.06V358.59h70.85V507.38c0,93.1-44.35,133.6-128.45,133.6S2898.69,600.48,2898.69,507.38Z" transform="translate(-11.91 -8.79)"/><path class="cls-2" d="M3256.91,358.59h75.3L3417,496.5l32.15,60.91h2c-3.46-29.33-9.39-68.17-9.39-100.86v-98h70V635.88H3436.5l-84.81-138.26-32.15-60.57h-2c3.46,30.58,9.39,67.73,9.39,100.42v98.41h-70Z" transform="translate(-11.91 -8.79)"/><path class="cls-2" d="M3598.1,498.84c0-92,71.3-145.36,153.45-145.36,42,0,75.87,16.87,97.75,36l-38.74,40.21c-16.31-13-33.85-22.07-57.37-22.07-44.58,0-79.78,33.53-79.78,89.12,0,57,31.09,90.12,78.61,90.12,26.69,0,47.69-11.21,63.59-25.92l38.74,39.36c-27,26.78-62.91,40.69-105,40.69C3666.94,641,3598.1,592.24,3598.1,498.84Z" transform="translate(-11.91 -8.79)"/><path class="cls-2" d="M3928.56,358.59h73.49V465.44h112.21V358.59h73.49V635.88h-73.49V520.12H4002.05V635.88h-73.49Z" transform="translate(-11.91 -8.79)"/><path class="cls-2" d="M4414.09,358.59h111.68c71.52,0,129.21,21.82,129.21,89.2,0,65.17-58.34,94-127.22,94h-40.18v94.09h-73.49ZM4523.42,492c40.41,0,59.53-15.36,59.53-44.23,0-29-21.76-39.43-61.52-39.43h-33.85V492Z" transform="translate(-11.91 -8.79)"/><path class="cls-2" d="M4772,358.59H4860L4962,635.88h-77.78l-42.52-140.44c-9-27.72-17.72-60.51-26.4-89.44h-2c-7.86,29.28-16.54,61.72-25.57,89.44l-42.7,140.44h-75.14ZM4737.24,521.1h156.4v48.72h-156.4Z" transform="translate(-11.91 -8.79)"/><path class="cls-2" d="M5018.12,358.59H5110c99.28,0,163.24,42.14,163.24,137.44s-64,139.85-159.13,139.85h-96Zm87.43,226.81c55.14,0,92.39-23,92.39-89.37s-37.25-87-92.39-87h-13.94V585.4Z" transform="translate(-11.91 -8.79)"/></g></svg>