<svg xmlns="http://www.w3.org/2000/svg" width="130.956" height="94.731" viewBox="0 0 130.956 94.731">
  <title>planet-1</title>
  <path d="M130.857,54.222c-.559-3.462-8.568-6.694-19.176-7.809A47.145,47.145,0,0,0,94.2,10.654c-.2-.178-.394-.357-.61-.524l-.022.027A47.173,47.173,0,0,0,17.278,46.509C14.013,47.26,2.924,50.076.515,54.147a3.308,3.308,0,0,0-.381,2.686c.338,1.125,1.094,3.623,19.571,5.453a47.213,47.213,0,0,0,89.987-1.35c9.222-1.168,16.487-2.451,18.825-3.474S130.981,55,130.857,54.222ZM95.8,60.445c-.267-3.15-.411-6.221.5-7.97,1.373-2.633,8.453-3.163,13.345-2.894a44.985,44.985,0,0,1-1.51,9.517C104.281,59.575,100.105,60.034,95.8,60.445ZM84.7,61.1c-.755-4.123-1.535-8.387.144-12.842,2.5-6.636,17.8-5.582,24.714-4.442.089,1.155.149,2.319.149,3.5,0,.09-.007.178-.007.267-3.646-.191-12.969-.248-15.17,3.968-1.168,2.24-1.022,5.525-.719,9.081-3,.274-6.044.521-9.063.735Zm24.654-19.336c-5.513-.838-23.144-2.8-26.381,5.789-1.876,4.973-1.045,9.514-.241,13.907l.008.041c-6.19.406-12.206.655-17.437.655-17.015,0-32.635-.667-44.1-1.742A44.96,44.96,0,0,1,19.42,51c2.744.278,9.483.876,16.557.876,7.419,0,15.193-.659,19.071-3.039,3.83-2.351,5.887-4.75,6.289-7.335.471-3.03-1.475-5.742-3.222-7.766-.493-.571-1.08-1.2-1.7-1.859-2.224-2.373-5.271-5.624-4.646-7.439.334-.969,1.863-1.692,4.421-2.088,5.468-.848,13.926-.445,21.39-.09,8.623.41,14.013.611,16.083-.373A5.856,5.856,0,0,0,97.119,17.2a6.235,6.235,0,0,0,0-1.135A45.09,45.09,0,0,1,109.351,41.765Zm-16.329-29.5a5.818,5.818,0,0,1,2.108,4.718A3.847,3.847,0,0,1,92.8,20.078c-1.724.819-8.539.494-15.129.182-7.558-.362-16.125-.768-21.791.11-3.433.533-5.4,1.65-6.005,3.413-1.019,2.955,2.22,6.41,5.077,9.459.6.64,1.169,1.246,1.646,1.8,2.207,2.557,3.033,4.4,2.76,6.152-.3,1.943-2.1,3.941-5.359,5.937-7.1,4.359-29.88,2.331-34.7,1.844-.02-.551-.042-1.1-.042-1.659,0-.844.027-1.682.073-2.515a52.187,52.187,0,0,0,7.563,1.079q1.032.061,1.974.061c5.347,0,8.486-1.5,9.341-4.462a40.333,40.333,0,0,0,1-8.338c.34-6.109.692-12.426,4.735-13.886a28.391,28.391,0,0,1,6.591-1.066c2.093,0,6.778-.749,9.525-3.578A6.682,6.682,0,0,0,62.023,9.59,9.962,9.962,0,0,0,59.03,2.432a44.927,44.927,0,0,1,33.992,9.836ZM56.265,2.853a7.6,7.6,0,0,1,3.759,6.8,4.7,4.7,0,0,1-1.4,3.569c-2.1,2.163-6.078,2.97-8.091,2.97a28.442,28.442,0,0,0-7.211,1.166c-5.346,2.4-5.753,9.231-6.112,15.675a39.213,39.213,0,0,1-.923,7.9c-1.273,4.422-11.686,3.029-16.8,1.868A45.313,45.313,0,0,1,56.265,2.853ZM2.05,56.259a1.284,1.284,0,0,1,.186-1.093c1.722-2.909,10.569-5.534,15.053-6.6A47.023,47.023,0,0,0,19.061,60.2C8.916,59.158,2.505,57.774,2.05,56.259Zm23.632,6.547C42.2,64.06,60.183,64.157,65.3,64.157c5.232,0,11.391-.255,17.784-.676.543,3.266.8,6.385-.549,9.373-2.189,4.862-9.628,9.823-23.386,7.824A131.764,131.764,0,0,1,46.162,77.7c-9.184-2.407-14.963-3.81-17.074-2.285a45.2,45.2,0,0,1-7.2-12.925C23.086,62.6,24.342,62.7,25.682,62.806Zm4.7,14.16c1.632-.906,9.486,1.153,15.276,2.67a132.927,132.927,0,0,0,13.206,3.02,41.242,41.242,0,0,0,5.921.43c7.993,0,16.42-2.4,19.576-9.41,1.54-3.418,1.29-6.908.733-10.333,2.953-.208,5.937-.45,8.892-.717.306,3.456.545,6.928-.454,9.01-1.2,2.493-4.787,5.369-7.955,7.906-2.845,2.277-5.3,4.245-6.02,5.89a10.06,10.06,0,0,0-.87,4.807,45.106,45.106,0,0,1-48.3-13.273ZM80.656,89.535a8.275,8.275,0,0,1,.73-3.3c.522-1.193,3.021-3.2,5.438-5.13,3.335-2.671,7.114-5.7,8.508-8.6,1.228-2.559.972-6.33.642-10.059,3.99-.377,7.89-.8,11.538-1.236A45.434,45.434,0,0,1,80.656,89.535Zm47.06-33.9c-1.991.871-8.706,2.067-17.438,3.2a47.1,47.1,0,0,0,1.4-10.4c11.494,1.234,16.963,4.605,17.207,6.115C128.961,55.028,128.093,55.465,127.716,55.63Z" fill="#5c6d88"/>
</svg>
