<svg xmlns="http://www.w3.org/2000/svg" xmlns:xlink="http://www.w3.org/1999/xlink" width="508" height="1001.214" viewBox="0 0 508 1001.214">
  <defs>
    <linearGradient id="a" x1="253.569" y1="977.887" x2="253.569" y2="757.272" gradientUnits="userSpaceOnUse">
      <stop offset="0" stop-color="#fff" stop-opacity="0"/>
      <stop offset="0.209" stop-color="#fbd6c1" stop-opacity="0.285"/>
      <stop offset="0.417" stop-color="#f7b289" stop-opacity="0.539"/>
      <stop offset="0.607" stop-color="#f5965d" stop-opacity="0.738"/>
      <stop offset="0.774" stop-color="#f3813e" stop-opacity="0.881"/>
      <stop offset="0.91" stop-color="#f1752b" stop-opacity="0.968"/>
      <stop offset="1" stop-color="#f17024"/>
    </linearGradient>
    <linearGradient id="b" x1="253.941" y1="909.632" x2="253.941" y2="763.19" gradientUnits="userSpaceOnUse">
      <stop offset="0" stop-color="#fff" stop-opacity="0"/>
      <stop offset="0.209" stop-color="#fbe3c1" stop-opacity="0.285"/>
      <stop offset="0.417" stop-color="#f7c989" stop-opacity="0.539"/>
      <stop offset="0.607" stop-color="#f5b55d" stop-opacity="0.738"/>
      <stop offset="0.774" stop-color="#f3a73e" stop-opacity="0.881"/>
      <stop offset="0.91" stop-color="#f19e2b" stop-opacity="0.968"/>
      <stop offset="1" stop-color="#f19b24"/>
    </linearGradient>
    <clipPath id="c">
      <circle cx="257.031" cy="327.361" r="72.783" fill="none"/>
    </clipPath>
  </defs>
  <title>rocket</title>
  <g>
    <path d="M323.1,754.957h-69.53v0H184.039c-59.39,123.127,69.53,246.253,69.53,246.253v-.006C253.643,1001.137,382.471,878.048,323.1,754.957Z" fill="url(#a)"/>
    <path d="M303.35,754.958H253.941v0H204.532c-42.2,87.5,49.41,174.992,49.41,174.992v0C253.994,929.9,345.542,842.429,303.35,754.958Z" fill="url(#b)"/>
    <path d="M247.736,757.463v-.141c-.19,0-.366.011-.556.011-55.415,0-89.366-17.307-103.706-26.688,2.839,8.025,5.765,16.107,8.865,24.312,0,0,29.56,26.947,92.429,27.7v.208c64.512-.083,97.43-26.411,97.43-26.411s4.534-9.033,11.032-26.033C340.141,738.6,304.736,756.734,247.736,757.463Z" fill="#c4c2c6"/>
    <path d="M362.863,151.112S318.19,177.033,249.25,177.033s-111.958-27.024-111.958-27.024-5.061,7.158-12.408,20.142c10.855,6.454,54.713,29.661,124.27,29.661,59.023,0,104.372-18.911,124.538-29.1C370.279,164.242,366.7,157.716,362.863,151.112Z" fill="#e3e8e3"/>
    <path d="M150.92,712.785l-54.9-229.777s-4.169-14.915-27.235-.442S3.412,541.377-.049,653.267s15.573,148.8,15.573,148.8,6.608,25.152,25.377,15c18.584-10.057,15.423-23.234,38.01-46.242,23.691-24.132,33.34-30.173,49.656-38.541C145.148,723.777,153.087,728.47,150.92,712.785Z" fill="#d65050"/>
    <g>
      <path d="M430.216,373s2.943-89.651-56.524-202.29c-20.166,10.193-65.515,29.1-124.538,29.1a287.967,287.967,0,0,1-66-7.448q-5.564,19.059-11.2,39.606C133.288,373.425,174,509.792,174,509.792L249.3,465.015V760.743c58.75-.12,95.146-18.759,108.462-27.078a67.676,67.676,0,0,0,5.758-3.932S432.543,592.468,430.216,373Z" fill="#fbf8f8"/>
      <path d="M249.3,760.743V465.015L174,509.792S133.288,373.425,171.96,231.97q5.616-20.544,11.2-39.606c-31.366-7.374-51.413-18.135-58.272-22.213C105.866,203.76,71.5,276.5,69.671,365.856c-2.528,123.879,18.509,232.93,67.4,362.326a69.6,69.6,0,0,0,7.967,5.884c14.34,9.381,48.291,26.688,103.706,26.688C248.936,760.754,249.113,760.743,249.3,760.743Z" fill="#eaeaea"/>
    </g>
    <path d="M356.217,713.863l54.9-229.776s4.169-14.915,27.235-.442,65.371,58.811,68.831,170.7-15.572,148.8-15.572,148.8-5.191,21.916-25.377,15-19.151-19.068-39.8-43.833c-17.675-21.2-35.541-34.59-47.87-40.949C362.008,724.818,354.049,729.549,356.217,713.863Z" fill="#ad4545"/>
    <path d="M265.457,479.618s2.494-19.949-15.959-19.949c-.039,0-.072.007-.111.007V819.427c12.474-.456,12.842-11.477,12.842-11.477s1.234-82.963,4.226-136.825S270.943,538.467,265.457,479.618Z" fill="#d65050"/>
    <path d="M233.171,476.274s-5.915,111.635-2.218,192.219,4.436,138.25,4.436,138.25-.039,12.727,13.226,12.727c.273,0,.509-.034.772-.043V459.676C231.063,459.747,233.171,476.274,233.171,476.274Z" fill="#ad4545"/>
    <circle cx="257.102" cy="327.342" r="89.489" fill="#dfe1e5"/>
    <path d="M362.863,151.112S312.124,54.045,275.172,15.99c0,0-14.119-15.5-25.392-15.539-25.486,54.045-59.549,159.819-62.491,169a253.719,253.719,0,0,0,61.961,7.579C318.19,177.033,362.863,151.112,362.863,151.112Z" fill="#d65050"/>
    <path d="M249.742.448c-11.28,0-27.448,18.048-27.448,18.048s-40.662,48.334-85,131.513c0,0,18.247,11.451,50,19.445,2.942-9.184,37.005-114.958,62.491-169C249.767.451,249.754.448,249.742.448Z" fill="#ad4545"/>
    <circle cx="257.004" cy="327.205" r="72.549" fill="#3b4d56"/>
    <path d="M267.884,38.093S374.721,216.155,371.91,383.909C371.91,383.909,415.957,206.784,267.884,38.093Z" fill="#fff" opacity="0.43"/>
    <g clip-path="url(#c)">
      <path d="M255.585,429.207s-4.253,9.092-4.546,13.784,6.544,3.359,7.745,1.387,5.893-14.731,5.893-14.731Z" fill="#ef9f7d"/>
      <path d="M257.32,370.252l1.048.092a66.99,66.99,0,0,0,9.775.02C264.966,370.435,261.369,370.409,257.32,370.252Z" fill="#fff" opacity="0.15"/>
      <path d="M266.445,305.827l.167.032a16.43,16.43,0,0,0-1.423-1.815c-1.155-1.243-1.934-4.353-5.6-2.606a10.279,10.279,0,0,0-4.509,5.114C259.612,305.563,263.662,305.3,266.445,305.827Z" fill="#96cfe2"/>
      <path d="M292.752,333.946a19.259,19.259,0,0,0-.905-21.824s-8.045-10.157-20.214-4.223Z" fill="#f2f2f2"/>
      <path d="M293.8,333.667a19.708,19.708,0,0,0-.6-3.184c-5.251-20.126-17.889-22.969-26.581-24.624.452.655.752,1.159.752,1.159s-8.463.919-12.843.97a12.376,12.376,0,0,1,.557-1.436c-8.322,1.816-18.28,6.082-25.082,12.424.457.23.753.381.753.381s.686,1.649-.515,5.666-3.42,4.224-3.42,4.224a8.705,8.705,0,0,1-3.294-1.266c-4.56,10.812-.594,22.747-.223,25.066a60.158,60.158,0,0,1,.193,7.983c1.154.051,2.515.633,3.68,2.575,2.5,4.172,22.192,5.952,30.15,6.647,4.049.157,7.646.183,10.823.112a52.193,52.193,0,0,0,11.071-1.692A55.442,55.442,0,0,0,293.8,333.667Z" fill="#96cfe2"/>
      <path d="M240.431,324.874s3.306-8.818,12.632-9.242,17.753,9.6,18.4,20.349S262.416,358.045,245.433,347C245.433,347,236.107,339.711,240.431,324.874Z" fill="#f2f2f2"/>
      <path d="M267.364,307.018s-.3-.5-.752-1.159l-.167-.032c-2.783-.529-6.833-.264-11.367.725a12.376,12.376,0,0,0-.557,1.436C258.9,307.937,267.364,307.018,267.364,307.018Z" fill="#96cfe2"/>
      <path d="M230,318.976a53.17,53.17,0,0,0-6.4-2.9c-1.016-.138-3.417,1.293-3,6.881a6.284,6.284,0,0,0,2.93,5.022,23.98,23.98,0,0,1,3.52-5.864A31.459,31.459,0,0,1,230,318.976Z" fill="#96cfe2"/>
      <path d="M230.234,325.023c1.2-4.017.515-5.666.515-5.666s-.3-.151-.753-.381a31.459,31.459,0,0,0-2.956,3.141,23.98,23.98,0,0,0-3.52,5.864,8.705,8.705,0,0,0,3.294,1.266S229.033,329.041,230.234,325.023Z" fill="#96cfe2"/>
      <path d="M245.728,327.821s1.684,2.259,4.387-.178a3.021,3.021,0,0,0,.089-3.589C248.919,322.06,243.912,323.39,245.728,327.821Z"/>
      <path d="M266.233,381.825a51.671,51.671,0,0,0,6.4-1.5q-1.152.078-2.437.108Q268.253,381.206,266.233,381.825Z" fill="#96cfe2"/>
      <path d="M266.233,381.825a51.671,51.671,0,0,0,6.4-1.5q-1.152.078-2.437.108Q268.253,381.206,266.233,381.825Z" fill="#fff" opacity="0.15"/>
      <path d="M264.04,380.369c-17.371-.559-26.784-3.68-35.468-6.707a51.778,51.778,0,0,0,29.08,8.88c.61,0,1.214-.026,1.819-.047.307-.127.619-.243.923-.376Q262.254,381.309,264.04,380.369Z" fill="#96cfe2"/>
      <path d="M225.865,371.688l48.581,1.6c1.314-1.129,2.579-2.313,3.782-3.558-2.765.31-6.1.547-10.085.636a66.99,66.99,0,0,1-9.775-.02l-1.048-.092c-1.844-.071-3.775-.168-5.814-.3,0,0-19.166-1.9-28.1-6.23,0,0,.048-1.135.083-2.694a4.611,4.611,0,0,0-2.56.7,13.957,13.957,0,0,0-2.161,3.334A52.331,52.331,0,0,0,225.865,371.688Z" fill="#607d8b"/>
      <path d="M290.374,366.089l-.083.1c-.071.277-.137.546-.21.826a8.041,8.041,0,0,1-.89.4,52.289,52.289,0,0,1-6.779,6.139l4.26.14a52.231,52.231,0,0,0,6.7-5.364c-.057-.133-.107-.26-.173-.4A3.351,3.351,0,0,0,290.374,366.089Z" fill="#607d8b"/>
      <path d="M268.143,370.364c3.987-.089,7.32-.326,10.085-.636.334-.346.66-.7.986-1.056A52.193,52.193,0,0,1,268.143,370.364Z" fill="#607d8b"/>
      <path d="M227.17,363.605c-1.165-1.942-2.526-2.524-3.68-2.575-.035,1.559-.083,2.694-.083,2.694,8.933,4.332,28.1,6.23,28.1,6.23,2.039.13,3.97.227,5.814.3C249.362,369.557,229.673,367.777,227.17,363.605Z" fill="#607d8b"/>
      <path d="M290.081,367.011c.073-.28.139-.549.21-.826q-.541.621-1.1,1.224A8.041,8.041,0,0,0,290.081,367.011Z" fill="#607d8b"/>
      <path d="M271.789,379.779c-.524.229-1.056.444-1.589.656q1.287-.03,2.437-.108a51.031,51.031,0,0,0,14.035-6.639l-4.26-.14A51.962,51.962,0,0,1,271.789,379.779Z" fill="#607d8b"/>
      <path d="M274.446,373.286l-48.581-1.6c.883.683,1.78,1.348,2.707,1.974,8.684,3.027,18.1,6.148,35.468,6.707A55.823,55.823,0,0,0,274.446,373.286Z" fill="#607d8b"/>
      <path d="M255.809,383.867a52.022,52.022,0,0,0,10.424-2.042,52.231,52.231,0,0,1-6.762.67C258.269,382.989,257.05,383.452,255.809,383.867Z" fill="#96cfe2"/>
      <path d="M279.457,368.6c2.845-.978,7.65-2.918,10.86-2.516,4.381-17.163,4.084-27.6,3.478-32.414a55.442,55.442,0,0,1-14.581,35.005C279.292,368.647,279.383,368.622,279.457,368.6Z" fill="#96cfe2"/>
      <path d="M288.194,352.768s1.974,6.448,2.038,7.266c0,0,4.975.228,6.785-.993a.943.943,0,0,0,.385-.839l-.485-9.34Z" fill="#f2f2f2"/>
      <path d="M282.858,355.726c.423,1.4,1.374,4.575,1.712,5.982a.8.8,0,0,0,.775.621,17.559,17.559,0,0,0,5.384-.638,1.712,1.712,0,0,0,1.105-1.7l-.4-7.671a.811.811,0,0,0-1.141-.7l-6.991,3.131A.806.806,0,0,0,282.858,355.726Z" fill="#f2f2f2"/>
      <path d="M285.373,341.78s-8.162,5.216-5.892,13.378c0,0,1.044,2.087,6.137.982s13.624-2.946,13.992-7.61a7.95,7.95,0,0,0-6.014-8.1Z" fill="#e2a67d"/>
      <path d="M285.744,343.428a6.144,6.144,0,0,1,2.724-6.686s3-1.071,4.176.848a5.118,5.118,0,0,1-1.177,6.748C289.115,346.133,286.116,345.657,285.744,343.428Z" fill="#525354"/>
      <path d="M265.989,282.26c-.375-.028-.752-.046-1.128-.069a55.638,55.638,0,0,1,29,48.858c0,.878-.028,1.75-.068,2.618a55.442,55.442,0,0,1-14.581,35.005c.078-.025.169-.05.243-.075,2.845-.978,7.65-2.918,10.86-2.516l.057.008a51.995,51.995,0,0,0-24.385-83.829Z" fill="#fff" opacity="0.15"/>
      <path d="M268.1,380.452c-1.4-.012-2.752-.041-4.061-.083q-1.785.938-3.646,1.75c-.3.133-.616.249-.923.376a52.231,52.231,0,0,0,6.762-.67q2.02-.617,3.967-1.39C269.528,380.45,268.834,380.458,268.1,380.452Z" fill="#96cfe2"/>
      <path d="M268.1,380.452c-1.4-.012-2.752-.041-4.061-.083q-1.785.938-3.646,1.75c-.3.133-.616.249-.923.376a52.231,52.231,0,0,0,6.762-.67q2.02-.617,3.967-1.39C269.528,380.45,268.834,380.458,268.1,380.452Z" fill="#fff" opacity="0.15"/>
      <path d="M270.2,380.435c-.672.015-1.366.023-2.1.017-1.4-.012-2.752-.041-4.061-.083-17.371-.559-26.784-3.68-35.468-6.707-1.941-.677-3.848-1.349-5.8-1.986,0,0-.17-.032-.438-.1l-.3-.01s-4.269,12.228-6.748,22.73-11.981,38.327,15.182,39.116c26.767.777,34.748-7.686,39.206-11.922,4.411-4.19,18.384-28.429,20.206-47.088-.365.187-.745.38-1.155.588-3.929,2-7,4.73-16.094,5.341Z" fill="#96cfe2"/>
      <path d="M290.291,366.185l.083-.1-.057-.008Z" fill="#607d8b"/>
      <path d="M290.291,366.185l.083-.1-.057-.008Z" fill="#fff" opacity="0.15"/>
      <path d="M290.291,366.185l.083-.1-.057-.008Z" fill="#fff" opacity="0.15"/>
      <path d="M289.191,367.409a44.155,44.155,0,0,1-10.963,2.319c-1.2,1.245-2.468,2.429-3.782,3.558l7.966.262A52.289,52.289,0,0,0,289.191,367.409Z" fill="#607d8b"/>
      <path d="M289.191,367.409a44.155,44.155,0,0,1-10.963,2.319c-1.2,1.245-2.468,2.429-3.782,3.558l7.966.262A52.289,52.289,0,0,0,289.191,367.409Z" fill="#fff" opacity="0.15"/>
      <path d="M290.291,366.185l.026-.1c-3.21-.4-8.015,1.538-10.86,2.516-.074.025-.165.05-.243.075-.326.355-.652.71-.986,1.056a44.155,44.155,0,0,0,10.963-2.319Q289.751,366.806,290.291,366.185Z" fill="#607d8b"/>
      <path d="M290.291,366.185l.026-.1c-3.21-.4-8.015,1.538-10.86,2.516-.074.025-.165.05-.243.075-.326.355-.652.71-.986,1.056a44.155,44.155,0,0,0,10.963-2.319Q289.751,366.806,290.291,366.185Z" fill="#fff" opacity="0.15"/>
      <path d="M268.1,380.452c.733.006,1.427,0,2.1-.017.533-.212,1.065-.427,1.589-.656a51.962,51.962,0,0,0,10.623-6.231l-7.966-.262a55.823,55.823,0,0,1-10.406,7.083C265.349,380.411,266.7,380.44,268.1,380.452Z" fill="#607d8b"/>
      <path d="M268.1,380.452c.733.006,1.427,0,2.1-.017.533-.212,1.065-.427,1.589-.656a51.962,51.962,0,0,0,10.623-6.231l-7.966-.262a55.823,55.823,0,0,1-10.406,7.083C265.349,380.411,266.7,380.44,268.1,380.452Z" fill="#fff" opacity="0.15"/>
      <path d="M293.368,368.324c-.057-.133-.107-.26-.173-.4a3.351,3.351,0,0,0-2.821-1.835l-.083.1.026-.1c-3.21-.4-8.015,1.538-10.86,2.516-.074.025-.165.05-.243.075a52.193,52.193,0,0,1-11.071,1.692,66.99,66.99,0,0,1-9.775-.02l-1.048-.092c-7.958-.695-27.647-2.475-30.15-6.647-1.165-1.942-2.526-2.524-3.68-2.575a4.611,4.611,0,0,0-2.56.7,13.957,13.957,0,0,0-2.161,3.334c-1.979,4.584,2.174,6.127,3.568,6.5.268.072.438.1.438.1,1.949.637,3.856,1.309,5.8,1.986,8.684,3.027,18.1,6.148,35.468,6.707,1.309.042,2.659.071,4.061.083.733.006,1.427,0,2.1-.017q1.287-.03,2.437-.108c9.1-.611,12.165-3.344,16.094-5.341.41-.208.79-.4,1.155-.588C293.4,372.6,294.779,371.622,293.368,368.324Z" fill="#607d8b"/>
      <path d="M219.609,433.549s-4.2,9.112-4.492,13.814,6.466,3.366,7.652,1.389,5.823-14.762,5.823-14.762Z" fill="#ef9f7d"/>
      <path d="M239.445,386.125s-2.985,9.728-3.156,10.92a4.715,4.715,0,0,0,2.559,4.765c2.388,1.29,5.884,1.588,7.078-.1s5.97-15.783,5.97-15.783-.4-4.37-6.315-3.154C240.24,383.87,239.445,386.125,239.445,386.125Z" fill="#e2a67d"/>
      <path d="M287.731,315.07s1.4,1.876,3.643-.147a2.51,2.51,0,0,0,.073-2.981C290.38,310.287,286.223,311.391,287.731,315.07Z"/>
      <path d="M263.446,305.882a7.373,7.373,0,0,0-.528-.648c-.577-.622-.968-2.179-2.8-1.305a4.91,4.91,0,0,0-2.108,2.251A23.8,23.8,0,0,1,263.446,305.882Z" fill="#607d8b"/>
      <path d="M225.651,326.563a3.441,3.441,0,0,1-3.015-3.046c-.2-2.706.962-3.4,1.454-3.333a33.614,33.614,0,0,1,3.467,1.588,4.579,4.579,0,0,1-.249,2.745C226.726,326.463,225.651,326.563,225.651,326.563Z" fill="#607d8b"/>
      <path d="M266.016,282.354c-.375-.029-.752-.047-1.128-.069a55.636,55.636,0,0,1,29,48.857c0,.879-.028,1.75-.068,2.618a55.442,55.442,0,0,1-14.581,35c.078-.025.169-.05.243-.075,2.845-.978,7.65-2.917,10.86-2.516l.057.008a51.994,51.994,0,0,0-24.385-83.828Z" fill="#fff" opacity="0.15"/>
      <path d="M269.843,279.957a52.013,52.013,0,0,0-51.074,85.119,13.977,13.977,0,0,1,2.161-3.334,4.62,4.62,0,0,1,2.56-.7c1.154.051,2.515.634,3.68,2.575,2.5,4.173,22.192,5.953,30.15,6.648,4.049.157,7.646.182,10.823.112a52.118,52.118,0,0,0,11.071-1.693,55.437,55.437,0,0,0,14.581-35c.04-.868.068-1.74.068-2.618a55.637,55.637,0,0,0-29-48.858c.376.022.753.041,1.128.069A51.994,51.994,0,0,1,290.374,366.1a3.35,3.35,0,0,1,2.821,1.836c.066.14.116.267.173.4a52,52,0,0,0-23.525-88.376Z" fill="#fff" opacity="0.15"/>
    </g>
  </g>
</svg>
