<svg id="Layer_1" data-name="Layer 1" xmlns="http://www.w3.org/2000/svg" viewBox="0 0 1071.71 287.13"><defs><style>.cls-1{fill:#fff;}</style></defs><title>inertia-logo-word</title><path d="M543.28,77.05c.23,4.92.63,9.85.63,14.77,0,7.19-.09,14.4-.42,21.55a16.17,16.17,0,0,1-1.76,6.27,10.36,10.36,0,0,1-10.4,5.63c-4.38-.63-7.75-3.39-8.44-8.14-1.37-9.48-2.63-19-3.29-28.56-.84-12.16-.84-24.38-1.62-36.54-.31-4.94-1.74-9.8-2.6-14.71a94.46,94.46,0,0,1-1.53-10c-.41-6.58,3.13-11.37,9.39-13.53a10.16,10.16,0,0,0,3.87-2.51C537.18.88,549.84-1.76,563,1.55c13.84,3.47,22,13.92,25.75,27.55a46.16,46.16,0,0,1,1.37,12.44C590,52.74,584.77,61,574.84,66.11c-1,.54-2.08,1-4,2,2.55,1.72,4.5,3.26,6.64,4.45,11,6.09,22.12,12,33.09,18.16,11.49,6.45,20.89,15.34,29,25.63A35.56,35.56,0,0,1,647.24,135c.44,4.18-.38,6.43-3.13,7.55-3.14,1.25-4.93-.5-7.26-2.45-7.79-6.48-15.72-12.87-24.08-18.61-6.39-4.38-13.41-7.9-20.29-11.56C575.16,100.74,558,91.28,544.6,76.43Zm-3.76-26.83c5.59-.82,10.25-1.61,14.93-2.14,3-.33,6-.14,9-.41,3.13-.28,5-2.09,5.6-5.27,1.25-6.73-3-15.73-9.17-19.61-4.38-2.74-15.48-1.79-19.9,2.06-2.8,2.43-6.06,5.13-5,9.48,1.35,5.58,3.19,11,4.62,15.89Z" transform="translate(0.21 -0.2)"/><path d="M381.66,82.67c.56,3.5.89,6.85,1.69,10.1a6.12,6.12,0,0,0,2.59,3.53c2.87,1.58,3.63,3.91,3.76,6.92.3,6.89,2.87,9.67,9.71,10.1s14,.86,21,.62c16.64-.62,31.89,4.52,47,10.58,3.43,1.38,4.75,4,4.09,7.08a5.86,5.86,0,0,1-6.07,4.77c-22.54.15-45.08,3.09-67.66.19a63.66,63.66,0,0,0-6.51-.91,21.35,21.35,0,0,0-6.89.68c-6.4,2-12.12.19-15-6.05a48.17,48.17,0,0,1-4.19-13.66c-3.13-22.76-5.9-45.55-8.66-68.35-.33-2.67-.73-4.57-3.23-6.42-5.63-4.18-4.31-12.11,2.37-14.16,13.56-4.13,27.23-8.1,41.52-8.66,9.18-.36,18.38-.21,27.55-.08a27.54,27.54,0,0,1,8.25,1.33c6.83,2.31,11,7,11.72,14.4.34,3.57-.82,6-3.36,6.93s-4.82.15-7.1-2.76c-.48-.62-.91-1.25-1-1.36-3.76.63-7,1.44-10.28,1.69C407,40.4,391,41.46,374.36,42.63c1.31,7.23,2.5,13.78,3.75,21,6.27-.74,12.11-1.54,18-2.09q12.21-1.12,24.46-1.93c8.08-.53,14.84,2.33,20.43,8.17,1.93,2,3.38,4.06,2.3,6.89s-3.34,3.49-6.09,4.07c-17.53,3.7-35.29,3.1-53,3.49A18.59,18.59,0,0,0,381.66,82.67Z" transform="translate(0.21 -0.2)"/><path d="M253.28,113.64c.35-3.58.74-6.33.88-9.09a321.62,321.62,0,0,0-2.94-64,49,49,0,0,1-.52-10.75c.54-6.83,4.09-9.88,10.79-9.71,1.12,0,2.84.34,3.25,1.09,2.21,4.08,6.47,6.6,7.63,11.59,5.94,25.35,7.44,51,5.6,76.87A75.15,75.15,0,0,1,274.75,126c-2.38,7.73-8.25,11.52-16.24,11.89A37.35,37.35,0,0,1,239,133.17c-12.53-6.67-22.81-16.11-32.21-26.58-3.82-4.25-7.42-8.7-11.9-13.93-.63,6.8-1,12.48-1.71,18.15A100.85,100.85,0,0,1,191.2,122c-1.19,5.05-4.7,7.84-9.28,7.8-4.76,0-8.14-3.29-9.28-8.52-2.58-12.1-1.83-24.27-.75-36.43.27-3-.63-5.5-1.6-8.38a38.56,38.56,0,0,1,.07-25.19c5.11-3.75,4.87-9.53,5.76-14.93.85-5.16,3.81-7.88,8.22-7.94,4.26-.06,7.71,2.79,8.41,7.79a95.12,95.12,0,0,1,.49,12.52c0,5.42,1.88,9.77,5.51,14,11.19,13,21.67,26.72,34.8,38C239.31,105.68,245.31,110.3,253.28,113.64Z" transform="translate(0.21 -0.2)"/><path d="M1063,108.62c2,6.32,3.91,12,5.43,17.73,1.33,5-1.33,9.68-6.1,11.57a9.7,9.7,0,0,1-12.27-4.59,33.31,33.31,0,0,1-1.7-4.46L1041.21,109c-16-1.71-32.15-.38-48.38-5-1.83,7.88-3.49,15.61-5.44,23.26-1.57,6.16-3.34,12.28-5.34,18.31-1.35,4.07-3.91,5.64-7.59,5.5s-5.74-2.28-7-5.53a30.25,30.25,0,0,1-2-17A352.93,352.93,0,0,1,983.28,64.6q8.26-21.52,16.18-43.2c1.26-3.35,1.92-6.89,2.9-10.37,1.36-4.81,4.23-7.3,8.29-7.26s6.76,2.56,8.07,7.41a15,15,0,0,0,1.61,3.67c4.25,7.19,9.27,14,12.71,21.6,7.6,16.72,14.52,33.75,21.43,50.76,1.56,3.85,3.51,6.47,7.71,7.21a27.05,27.05,0,0,1,4.55,1.45c2.87,1,4.78,2.9,4.77,6.16,0,3-1.77,4.87-5.64,5.93C1065.12,108.19,1064.35,108.32,1063,108.62ZM997.76,86.51c11.69,3.56,23.12.67,35.24,3l-19.87-51.21C1007.83,54.94,1003,70.23,997.76,86.51Z" transform="translate(0.21 -0.2)"/><path d="M54.83,48c8.64,18.6,9.82,38,10.75,57.32.35,7.18.29,14.41.24,21.57,0,4,.06,7.44,3,11,4.34,5.35,1.25,13.24-5.39,15.49a18.56,18.56,0,0,1-5.28.85c-11.18.44-22.36.81-33.54,1.18a21.51,21.51,0,0,1-3.59,0A11.54,11.54,0,0,1,10.8,143.87a11.16,11.16,0,0,1,10-11c4.95-.51,10-.41,15-.52,2.76-.06,5.53,0,8.66,0,0-1.75.09-3.06,0-4.35C43.15,112.52,42.1,97,40.59,81.48c-.91-9.33-2.51-18.59-3.8-27.88-.38-2.81-1.87-4.1-4.87-4-5.79.21-11.59.24-17.38.12a23.08,23.08,0,0,1-7-1A11.72,11.72,0,0,1-.2,37,11.77,11.77,0,0,1,7.74,26.09a25.85,25.85,0,0,1,6.47-1c17.14-1,34.29-2,51.43-3,.63,0,1.19-.16,1.79-.18,6.41-.11,11.3,3.83,12.35,9.93,1,5.71-2.84,11.4-9,13.08-2.5.69-5.08,1-7.63,1.54S58.11,47.37,54.83,48Z" transform="translate(0.21 -0.2)"/><path d="M858.47,126.5c-5.25-32.4-2.5-64.65,0-97.29a29.06,29.06,0,0,0-4.05-.7c-6.19-.1-12.38-.08-18.58-.16a28.39,28.39,0,0,1-5.36-.45c-4.85-1-7.6-4.34-7.45-8.71.14-4.1,3.55-7.82,7.7-8.81,20.12-4.78,40-3.13,59.88,1.61,4.28,1,8.41,2.37,11.45,6,1.64,1.94,3,3.82,2,6.44s-3,3.91-6,4.11c-7.1.49-14.19,1.25-22.15,2-.56,32.05,4.65,64.08,3.86,96.79a35.21,35.21,0,0,0,4.45.49c4.2,0,8.39-.27,12.58-.27a5.12,5.12,0,0,1,5.39,3.91c.62,2.3.15,4.63-1.93,5.87-14.85,8.82-30.49,14-48,9.63-4.48-1.11-7.7-4.18-10.64-7.43a7.22,7.22,0,0,1-1-8.41c1.55-3.22,4.2-4.64,7.75-4.58C851.76,126.55,855.1,126.5,858.47,126.5Z" transform="translate(0.21 -0.2)"/><path d="M704.26,28.36c-6.65,0-13,.14-19.41,0a71.59,71.59,0,0,1-13.11-1.18,21.37,21.37,0,0,1-8.47-4.08c-4.26-3.4-4.52-8.56-1.37-13.49,2.81-4.38,6.33-5.1,11.93-2.88a21,21,0,0,0,6.89,1.19c18.16.5,36.37.89,54.56,1.34,4.05.09,8,.73,11.27,3.33,4,3.14,5.09,7.2,3.16,11.76-1.07,2.54-3.13,3.22-5.81,3.28-6.88.15-13.77.56-21.54.91.62,3.6,1,6.89,1.83,10C731,64,733.27,90,733.13,116.3a62.7,62.7,0,0,1-1.76,12.81,7.7,7.7,0,0,1-6.19,5.89c-3.84.9-7.61,0-9.56-3.33a33.25,33.25,0,0,1-4-11.09c-1.1-6.49-1.44-13.1-2.11-19.67-1.78-17.49-3.75-35-5.27-52.48C703.79,42.12,704.26,35.71,704.26,28.36Z" transform="translate(0.21 -0.2)"/><path class="cls-1" d="M49.19,285.17a4.42,4.42,0,0,1,.36,1A4.42,4.42,0,0,0,49.19,285.17Z" transform="translate(0.21 -0.2)"/><path class="cls-1" d="M48.92,284.7l.17.3Z" transform="translate(0.21 -0.2)"/><path class="cls-1" d="M49.55,286.21a4.21,4.21,0,0,1,.1,1.12A4.21,4.21,0,0,0,49.55,286.21Z" transform="translate(0.21 -0.2)"/><path class="cls-1" d="M49.09,285l.1.17Z" transform="translate(0.21 -0.2)"/><path class="cls-1" d="M48.92,284.7a4.53,4.53,0,0,0-3.88-2,4.18,4.18,0,0,0-3.16,1.3A4.18,4.18,0,0,1,45,282.7,4.53,4.53,0,0,1,48.92,284.7Z" transform="translate(0.21 -0.2)"/></svg>