<svg xmlns="http://www.w3.org/2000/svg" viewBox="0 0 5317.75 984"><defs><style>.cls-1{fill:#d3fafb;}</style></defs><title>launchpad-logo-light-blue</title><g id="Layer_7" data-name="Layer 7"><path class="cls-1" d="M1190.49,507.38V358.59H1264v155.2c0,54.3,20.06,73.06,56.43,73.06,36.55,0,57.6-18.76,57.6-73.06V358.59h70.85V507.38c0,93.1-44.36,133.6-128.45,133.6S1190.49,600.48,1190.49,507.38Z"/><path class="cls-1" d="M1548.7,358.59H1660c67.48,0,119.88,15.81,119.88,68.77,0,24.87-16.31,51.35-42.83,59.86v1.7c33.21,7.36,58.85,28.23,58.85,65.27,0,56.41-55.92,81.69-126.62,81.69H1548.7Zm107.86,111.06c35.66,0,51.44-12.86,51.44-33,0-21.36-16.66-29.66-50.91-29.66h-34.9v62.69Zm6.69,117.86c40.06,0,60.76-12.16,60.76-37.38,0-24.31-20.35-34.22-60.76-34.22h-41.06v71.6Z"/><path class="cls-1" d="M1860.16,498.84c0-92,71.29-145.36,153.44-145.36a148.92,148.92,0,0,1,97.76,36l-38.74,40.21c-16.32-13-33.86-22.07-57.38-22.07-44.58,0-79.78,33.53-79.78,89.12,0,57,31.09,90.12,78.61,90.12,26.69,0,47.69-11.21,63.59-25.92l38.74,39.36c-27,26.78-62.9,40.69-105,40.69C1929,641,1860.16,592.24,1860.16,498.84Z"/><path class="cls-1" d="M2315.29,358.59h73.49V583.3h128.31v52.58h-201.8Z"/><path class="cls-1" d="M2655.91,358.59h87.93l102.08,277.29h-77.77l-42.53-140.44c-9-27.72-17.71-60.51-26.4-89.44h-2c-7.86,29.28-16.54,61.72-25.58,89.44L2629,635.88h-75.13ZM2621.13,521.1h156.4v48.72h-156.4Z"/><path class="cls-1" d="M2898.69,507.38V358.59h73.49v155.2c0,54.3,20.06,73.06,56.43,73.06,36.55,0,57.6-18.76,57.6-73.06V358.59h70.85V507.38c0,93.1-44.35,133.6-128.45,133.6S2898.69,600.48,2898.69,507.38Z"/><path class="cls-1" d="M3256.91,358.59h75.3L3417,496.5l32.15,60.91h2c-3.46-29.33-9.39-68.17-9.39-100.86v-98h70V635.88H3436.5l-84.81-138.26-32.15-60.57h-2c3.46,30.58,9.39,67.73,9.39,100.42v98.41h-70Z"/><path class="cls-1" d="M3598.1,498.84c0-92,71.3-145.36,153.45-145.36,42,0,75.87,16.87,97.75,36l-38.74,40.21c-16.31-13-33.85-22.07-57.37-22.07-44.58,0-79.78,33.53-79.78,89.12,0,57,31.09,90.12,78.61,90.12,26.69,0,47.69-11.21,63.59-25.92l38.74,39.36c-27,26.78-62.91,40.69-105,40.69C3666.94,641,3598.1,592.24,3598.1,498.84Z"/><path class="cls-1" d="M3928.56,358.59h73.49V465.44h112.21V358.59h73.49V635.88h-73.49V520.12H4002.05V635.88h-73.49Z"/><path class="cls-1" d="M4414.09,358.59h111.68c71.52,0,129.21,21.82,129.21,89.2,0,65.17-58.34,94-127.22,94h-40.18v94.09h-73.49ZM4523.42,492c40.41,0,59.53-15.36,59.53-44.23,0-29-21.76-39.43-61.52-39.43h-33.85V492Z"/><path class="cls-1" d="M4772,358.59H4860L4962,635.88h-77.78l-42.52-140.44c-9-27.72-17.72-60.51-26.4-89.44h-2c-7.86,29.28-16.54,61.72-25.57,89.44l-42.7,140.44h-75.14ZM4737.24,521.1h156.4v48.72h-156.4Z"/><path class="cls-1" d="M5018.12,358.59H5110c99.28,0,163.24,42.14,163.24,137.44s-64,139.85-159.13,139.85h-96Zm87.43,226.81c55.14,0,92.39-23,92.39-89.37s-37.25-87-92.39-87h-13.94V585.4Z"/><path class="cls-1" d="M475.36,403.82a70.94,70.94,0,1,0-70.94-70.94A70.94,70.94,0,0,0,475.36,403.82Zm-.11-129.13A58.34,58.34,0,1,1,416.92,333,58.33,58.33,0,0,1,475.25,274.69Z"/><path class="cls-1" d="M944.72.42H38.61A37.86,37.86,0,0,0,.86,38.17V944.28A37.86,37.86,0,0,0,38.61,982H944.72a37.85,37.85,0,0,0,37.75-37.75V38.17A37.86,37.86,0,0,0,944.72.42ZM337.19,356.76c44.9-161,132.86-240.6,132.86-240.6V68.9h13.18v47.26s87.36,79.59,132.26,240.6C632.82,418.89,634,493.37,628.4,565.2c-25.72-6.65-77.31-17.4-142-17.4-87.56,0-140.27,9.79-162.27,15.05C318.74,491.75,320.05,418.22,337.19,356.76ZM626.83,583.63c-2.25,24.1-5.17,47.75-8.4,70.37-10.22-2.43-23.13-5.15-38.3-7.61l11.61-71.51A253.59,253.59,0,0,1,626.83,583.63ZM485,638.71c-34.65,0-63.83,1.54-87.83,3.72L386.2,569.91c25.29-2.75,58-4.63,99.06-4,36.79.53,65.64,2.93,88,6l-11.45,71.79A598.43,598.43,0,0,0,485,638.71ZM559,661.22,545.49,746A597.69,597.69,0,0,0,484,742.8c-27.07,0-50.79.93-71.32,2.38l-12.94-85.79c22.85-1.93,50.71-3.08,84.15-2.6C514,657.23,538.75,658.92,559,661.22ZM376.78,644.56c-18.1,2.16-32.35,4.6-42.91,6.75-3.21-22.7-6.09-46.39-8.28-70.51a327.25,327.25,0,0,1,41.49-8.46ZM255.18,887.3l1.31-179.48,53.71-46.58,31.45,167.1ZM336.4,668.62a413.57,413.57,0,0,1,42.66-7.14L390.56,747c-15.67,1.54-29,3.34-40,5.14C346.06,727.52,341,699.17,336.4,668.62ZM519.18,890.91l-38.95-1H431.34l-10.66-45.06H469v-.3l11.77.3h1.83v0L531,846.14Zm-42.86-63.1H363.64c-1.51-13.2-5.26-33.47-9.94-58.74C381,764.38,423,760,482.83,760.87c54.3.79,91.28,5.65,115.66,10.83-4.45,24-8,43.36-9.45,56.1H476.36m87.25-79.63,13.73-84.54a323.14,323.14,0,0,1,38.49,8c-4.64,30.42-9.69,58.59-14.18,83C590.73,752.37,578,750.11,563.61,748.17Zm126.21,144.6-84.93-61.13,35.68-166.25,52.51,47.93Z"/></g></svg>