<svg xmlns="http://www.w3.org/2000/svg" viewBox="0 0 5317.75 984"><defs><style>.cls-1{fill:#d3fafb;}</style></defs><title>launchpad-logo-light-blue</title><g id="Layer_7" data-name="Layer 7"><path class="cls-1" d="M1190.49,505.86V359.44H1264V512.17c0,53.43,20.06,71.9,56.43,71.9,36.55,0,57.6-18.47,57.6-71.9V359.44h70.85V505.86c0,91.62-44.36,131.48-128.45,131.48S1190.49,597.48,1190.49,505.86Z"/><path class="cls-1" d="M1506.7,359.66H1618c67.48,0,119.88,15.81,119.88,68.77,0,24.88-16.31,51.36-42.83,59.86V490c33.21,7.35,58.85,28.23,58.85,65.26,0,56.41-55.92,81.69-126.62,81.69H1506.7Zm107.86,111.06c35.66,0,51.44-12.86,51.44-33,0-21.37-16.66-29.67-50.91-29.67h-34.9v62.69Zm6.69,117.86c40.06,0,60.76-12.16,60.76-37.37,0-24.32-20.35-34.23-60.76-34.23h-41.06v71.6Z"/><path class="cls-1" d="M1787.89,500.23c0-88.73,68.77-140.2,148-140.2a143.61,143.61,0,0,1,94.3,34.72l-37.37,38.78c-15.73-12.5-32.65-21.29-55.34-21.29-43,0-77,32.34-77,86,0,55,30,86.93,75.82,86.93,25.74,0,46-10.82,61.33-25l37.37,38c-26,25.83-60.67,39.25-101.25,39.25C1854.29,637.34,1787.89,590.32,1787.89,500.23Z"/><path class="cls-1" d="M2243,359.81h73.49V584.53h128.31V637.1H2243Z"/><path class="cls-1" d="M2695.89,636.62h77.77L2671.58,359.33h-87.94L2481.56,636.62h75.13l20.09-66h99.11Zm-104.3-114.77,7.8-25.66c9-27.73,17.72-60.17,25.58-89.44h2c8.69,28.92,17.37,61.71,26.4,89.44l7.77,25.66Z"/><path class="cls-1" d="M2795.43,505.81V359.32h72.35v152.8c0,53.45,19.75,71.93,55.56,71.93,36,0,56.7-18.48,56.7-71.93V359.32h69.75V505.81c0,91.65-43.66,131.53-126.45,131.53S2795.43,597.46,2795.43,505.81Z"/><path class="cls-1" d="M3169.35,636.76h-64.11V359.47H3184l84.82,137.91,32.15,60.92h2l-.39-198.83h65V636.76h-79.31L3203.42,498.5l-32.15-60.57h-2"/><path class="cls-1" d="M3416.3,500.13c0-88.8,68.82-140.3,148.1-140.3a143.72,143.72,0,0,1,94.36,34.74l-37.39,38.81c-15.74-12.51-32.67-21.3-55.38-21.3-43,0-77,32.36-77,86,0,55,30,87,75.87,87,25.76,0,46-10.82,61.38-25l37.39,38c-26.05,25.85-60.71,39.28-101.32,39.28C3482.74,637.34,3416.3,590.29,3416.3,500.13Z"/><path class="cls-1" d="M3714.3,359.62h73.49V466.48H3900V359.62h73.49V636.91H3900V521.16H3787.79V636.91H3714.3Z"/><path class="cls-1" d="M4199.83,359.58h111.68c71.52,0,129.2,21.82,129.2,89.2,0,65.17-58.33,94-127.21,94h-40.18v94.09h-73.49Zm109.33,128.8c40.41,0,59.53-15.37,59.53-44.24s-21.76-39.43-61.52-39.43h-33.85v83.67Z"/><path class="cls-1" d="M4538.76,359.49h87.93l102.09,277.29H4651l-42.52-140.44c-9-27.72-17.72-60.51-26.4-89.44h-2c-7.86,29.28-16.54,61.72-25.57,89.44l-42.7,140.44h-75.14ZM4504,522h156.4v48.72H4504Z"/><path class="cls-1" d="M4776.86,359.48h91.89c99.28,0,163.24,42.14,163.24,137.44s-64,139.85-159.13,139.85h-96Zm87.43,226.82c55.13,0,92.39-23.06,92.39-89.38s-37.26-87-92.39-87h-13.94V586.3Z"/><path d="M906.54.06H78.36c-2.5,0-5,.13-7.42.36H914C911.52.19,909.05.06,906.54.06Z"/><path d="M.58,77.84V906c0,2.15.11,4.28.28,6.38V71.46C.69,73.57.58,75.69.58,77.84Z"/><path class="cls-1" d="M475.36,403.82a70.94,70.94,0,1,0-70.94-70.94A70.94,70.94,0,0,0,475.36,403.82Zm-.11-129.13A58.34,58.34,0,1,1,416.92,333,58.33,58.33,0,0,1,475.25,274.69Z"/><path class="cls-1" d="M982.47,61.06A78.16,78.16,0,0,0,914,.42h-843a78.09,78.09,0,0,0-70.08,71V912.4A78.13,78.13,0,0,0,61.92,982a76.89,76.89,0,0,0,16.44,1.78H906.54A77,77,0,0,0,923,982a78.24,78.24,0,0,0,59.48-59.22A76.86,76.86,0,0,0,984.33,906V77.84A76.77,76.77,0,0,0,982.47,61.06ZM693.08,713.32l-3.26,179.45-84.93-61.13,35.68-166.25ZM531,846.14l-11.8,44.77-38.95-1H431.34l-10.66-45.06H469v-.3l11.77.3h1.83v0ZM476.36,827.8H363.64c-1.51-13.2-5.26-33.47-9.94-58.74C381,764.38,423,760,482.83,760.87c54.3.79,91.28,5.65,115.66,10.83-4.45,24-8,43.36-9.45,56.1Zm-97.3-166.32L390.56,747c-15.67,1.54-29,3.34-40,5.14-4.52-24.65-9.57-53-14.18-83.55A413.57,413.57,0,0,1,379.06,661.48Zm-45.19-10.17c-3.21-22.7-6.09-46.39-8.28-70.51a327.25,327.25,0,0,1,41.49-8.46l9.7,72.22C358.68,646.72,344.43,649.16,333.87,651.31ZM485,638.71c-34.65,0-63.83,1.54-87.83,3.72L386.2,569.91c25.29-2.75,58-4.63,99.06-4,36.79.53,65.64,2.93,88,6l-11.45,71.79A598.43,598.43,0,0,0,485,638.71ZM559,661.22,545.49,746A597.69,597.69,0,0,0,484,742.8c-27.07,0-50.79.93-71.32,2.38l-12.94-85.79c22.85-1.93,50.71-3.08,84.15-2.6C514,657.23,538.75,658.92,559,661.22Zm4.59,86.95,13.73-84.54a323.14,323.14,0,0,1,38.49,8c-4.64,30.42-9.69,58.59-14.18,83C590.73,752.37,578,750.11,563.61,748.17Zm16.52-101.78,11.61-71.51a253.59,253.59,0,0,1,35.09,8.75c-2.25,24.1-5.17,47.75-8.4,70.37C608.21,651.57,595.3,648.85,580.13,646.39ZM337.19,356.76c44.9-161,132.86-240.6,132.86-240.6V68.9h13.18v47.26s87.36,79.59,132.26,240.6C632.82,418.89,634,493.37,628.4,565.2c-25.72-6.65-77.31-17.4-142-17.4-87.56,0-140.27,9.79-162.27,15.05C318.74,491.75,320.05,418.22,337.19,356.76Zm-80.7,351.06,53.71-46.58,31.45,167.1-86.47,59Z"/><line x1="3169.35" y1="636.76" x2="3169.28" y2="437.93"/></g></svg>
