<svg xmlns="http://www.w3.org/2000/svg" viewBox="0 0 5317.75 984"><defs><style>.cls-1{fill:#d3fafb;}</style></defs><title>launchpad-logo-light-blue</title><g id="Layer_7" data-name="Layer 7"><path class="cls-1" d="M1190.49,507.38V358.59H1264v155.2c0,54.3,20.06,73.06,56.43,73.06,36.55,0,57.6-18.76,57.6-73.06V358.59h70.85V507.38c0,93.1-44.36,133.6-128.45,133.6S1190.49,600.48,1190.49,507.38Z"/><path class="cls-1" d="M1548.7,358.59H1660c67.48,0,119.88,15.81,119.88,68.77,0,24.87-16.31,51.35-42.83,59.86v1.7c33.21,7.36,58.85,28.23,58.85,65.27,0,56.41-55.92,81.69-126.62,81.69H1548.7Zm107.86,111.06c35.66,0,51.44-12.86,51.44-33,0-21.36-16.66-29.66-50.91-29.66h-34.9v62.69Zm6.69,117.86c40.06,0,60.76-12.16,60.76-37.38,0-24.31-20.35-34.22-60.76-34.22h-41.06v71.6Z"/><path class="cls-1" d="M1860.16,498.84c0-92,71.29-145.36,153.44-145.36a148.92,148.92,0,0,1,97.76,36l-38.74,40.21c-16.32-13-33.86-22.07-57.38-22.07-44.58,0-79.78,33.53-79.78,89.12,0,57,31.09,90.12,78.61,90.12,26.69,0,47.69-11.21,63.59-25.92l38.74,39.36c-27,26.78-62.9,40.69-105,40.69C1929,641,1860.16,592.24,1860.16,498.84Z"/><path class="cls-1" d="M2315.29,358.59h73.49V583.3h128.31v52.58h-201.8Z"/><path class="cls-1" d="M2655.91,358.59h87.93l102.08,277.29h-77.77l-42.53-140.44c-9-27.72-17.71-60.51-26.4-89.44h-2c-7.86,29.28-16.54,61.72-25.58,89.44L2629,635.88h-75.13ZM2621.13,521.1h156.4v48.72h-156.4Z"/><path class="cls-1" d="M2898.69,507.38V358.59h73.49v155.2c0,54.3,20.06,73.06,56.43,73.06,36.55,0,57.6-18.76,57.6-73.06V358.59h70.85V507.38c0,93.1-44.35,133.6-128.45,133.6S2898.69,600.48,2898.69,507.38Z"/><path class="cls-1" d="M3256.91,358.59h75.3L3417,496.5l32.15,60.91h2c-3.46-29.33-9.39-68.17-9.39-100.86v-98h70V635.88H3436.5l-84.81-138.26-32.15-60.57h-2c3.46,30.58,9.39,67.73,9.39,100.42v98.41h-70Z"/><path class="cls-1" d="M3598.1,498.84c0-92,71.3-145.36,153.45-145.36,42,0,75.87,16.87,97.75,36l-38.74,40.21c-16.31-13-33.85-22.07-57.37-22.07-44.58,0-79.78,33.53-79.78,89.12,0,57,31.09,90.12,78.61,90.12,26.69,0,47.69-11.21,63.59-25.92l38.74,39.36c-27,26.78-62.91,40.69-105,40.69C3666.94,641,3598.1,592.24,3598.1,498.84Z"/><path class="cls-1" d="M3928.56,358.59h73.49V465.44h112.21V358.59h73.49V635.88h-73.49V520.12H4002.05V635.88h-73.49Z"/><path class="cls-1" d="M4414.09,358.59h111.68c71.52,0,129.21,21.82,129.21,89.2,0,65.17-58.34,94-127.22,94h-40.18v94.09h-73.49ZM4523.42,492c40.41,0,59.53-15.36,59.53-44.23,0-29-21.76-39.43-61.52-39.43h-33.85V492Z"/><path class="cls-1" d="M4772,358.59H4860L4962,635.88h-77.78l-42.52-140.44c-9-27.72-17.72-60.51-26.4-89.44h-2c-7.86,29.28-16.54,61.72-25.57,89.44l-42.7,140.44h-75.14ZM4737.24,521.1h156.4v48.72h-156.4Z"/><path class="cls-1" d="M5018.12,358.59H5110c99.28,0,163.24,42.14,163.24,137.44s-64,139.85-159.13,139.85h-96Zm87.43,226.81c55.14,0,92.39-23,92.39-89.37s-37.25-87-92.39-87h-13.94V585.4Z"/><path class="cls-1" d="M959.94,12.34H64.05A37.43,37.43,0,0,0,26.73,49.67V945.55a37.43,37.43,0,0,0,37.32,37.33H959.94a37.43,37.43,0,0,0,37.32-37.33V49.67A37.43,37.43,0,0,0,959.94,12.34ZM273.1,886.92v0Zm5.08,2.29,1.29-177.45,53.11-46,31.09,165.21Zm261,3.57-38.51-1H452.35l-10.54-44.55h47.81V847l11.64.29h1.81v0l47.79,1.21Zm78.41-117.86c-4.39,23.77-7.9,42.87-9.34,55.47H496.86l0-13.77v13.77H385.42c-1.5-13-5.21-33.09-9.84-58.07q-1.49-8-3.08-16.72c-4.47-24.36-9.46-52.4-14-82.6q-1.29-8.44-2.51-17.11c-3.16-22.44-6-45.87-8.18-69.72q-.8-8.83-1.47-17.74c-5.3-70.31-4-143,12.94-203.77,44.39-159.2,131.36-237.89,131.36-237.89V80.05h13v46.72S590,205.45,634.42,364.65c17.13,61.44,18.26,135.08,12.76,206.1q-.7,9.15-1.55,18.22c-2.22,23.83-5.11,47.21-8.3,69.58q-1.26,8.81-2.57,17.4c-4.6,30.08-9.58,57.93-14,82.06Q619.12,766.82,617.61,774.92Zm90.31,119.7-84-60.44,35.28-164.37,51.92,47.39Z"/><path class="cls-1" d="M566,341.05a70.14,70.14,0,1,0-70.14,70.14A70.14,70.14,0,0,0,566,341.05Zm-70.24,57.82a57.68,57.68,0,1,1,57.67-57.68A57.67,57.67,0,0,1,495.77,398.87Z"/><path class="cls-1" d="M495.77,283.51a57.68,57.68,0,1,0,57.67,57.68A57.68,57.68,0,0,0,495.77,283.51Zm.1,112a54.43,54.43,0,1,1,54.43-54.43A54.43,54.43,0,0,1,495.87,395.48Z"/><path class="cls-1" d="M596.7,668.07A319.72,319.72,0,0,1,634.76,676q1.31-8.58,2.57-17.4c-10.1-2.41-22.88-5.09-37.87-7.53l11.48-70.7A251.11,251.11,0,0,1,645.63,589q.84-9.06,1.55-18.22c-25.42-6.57-76.44-17.21-140.42-17.21-86.58,0-138.69,9.69-160.44,14.89q.66,8.9,1.47,17.74a322.65,322.65,0,0,1,41-8.36l9.6,71.4c-17.91,2.14-32,4.55-42.44,6.68q1.23,8.65,2.51,17.11a408.4,408.4,0,0,1,42.18-7.06L412,750.53c-15.5,1.52-28.64,3.3-39.53,5.07q1.59,8.68,3.08,16.72c27-4.64,68.54-9,127.68-8.1,53.69.77,90.25,5.57,114.35,10.7q1.5-8.1,3.13-16.91c-10.8-2.2-23.42-4.44-37.61-6.36Zm-31.49,81.44a590.42,590.42,0,0,0-60.85-3.17c-26.76,0-50.21.93-70.51,2.36l-12.79-84.82c22.59-1.91,50.14-3,83.2-2.57,29.78.43,54.28,2.1,74.32,4.37ZM505.36,643.43c-34.26,0-63.11,1.52-86.83,3.68l-10.82-71.7c25-2.72,57.32-4.58,98-4,36.38.52,64.89,2.9,87,6l-11.32,71A589.14,589.14,0,0,0,505.36,643.43Z"/></g></svg>